<?xml version="1.0" encoding="UTF-8" standalone="no"?>
<svg
   xmlns:dc="http://purl.org/dc/elements/1.1/"
   xmlns:cc="http://creativecommons.org/ns#"
   xmlns:rdf="http://www.w3.org/1999/02/22-rdf-syntax-ns#"
   xmlns:svg="http://www.w3.org/2000/svg"
   xmlns="http://www.w3.org/2000/svg"
   xmlns:sodipodi="http://sodipodi.sourceforge.net/DTD/sodipodi-0.dtd"
   xmlns:inkscape="http://www.inkscape.org/namespaces/inkscape"
   width="210mm"
   height="210mm"
   viewBox="0 0 210 210.00002"
   version="1.1"
   id="svg8476"
   sodipodi:docname="yellow.svg"
   inkscape:version="1.0.2 (e86c870879, 2021-01-15, custom)">
  <defs
     id="defs8470" />
  <sodipodi:namedview
     id="base"
     pagecolor="#ffffff"
     bordercolor="#666666"
     borderopacity="1.0"
     inkscape:pageopacity="0.0"
     inkscape:pageshadow="2"
     inkscape:zoom="0.35"
     inkscape:cx="425.71429"
     inkscape:cy="585.71429"
     inkscape:document-units="mm"
     inkscape:current-layer="layer1"
     inkscape:document-rotation="0"
     showgrid="false"
     inkscape:window-width="1920"
     inkscape:window-height="1005"
     inkscape:window-x="0"
     inkscape:window-y="34"
     inkscape:window-maximized="1" />
  <metadata
     id="metadata8473">
    <rdf:RDF>
      <cc:Work
         rdf:about="">
        <dc:format>image/svg+xml</dc:format>
        <dc:type
           rdf:resource="http://purl.org/dc/dcmitype/StillImage" />
        <dc:title></dc:title>
      </cc:Work>
    </rdf:RDF>
  </metadata>
  <g
     inkscape:label="Layer 1"
     inkscape:groupmode="layer"
     id="layer1">
    <path
       d="M 204,104.00134 C 204,159.22995 159.22787,204 104,204 48.772125,204 4,159.22995 4,104.00134 4,48.772725 48.772125,4 104,4 159.22787,4 204,48.772725 204,104.00134"
       style="fill:#fecd33;fill-opacity:1;fill-rule:nonzero;stroke:none;stroke-width:0.0267618"
       id="path62" />
    <path
       d="m 60.111008,101.27965 c -7.8572,0 -14.229133,-6.36934 -14.229133,-14.229327 0,-7.8573 6.371933,-14.226644 14.229133,-14.226644 7.8572,0 14.229132,6.369344 14.229132,14.226644 0,7.859987 -6.371932,14.229327 -14.229132,14.229327"
       style="fill:#7f6619;fill-opacity:1;fill-rule:nonzero;stroke:none;stroke-width:0.0267618"
       id="path64" />
    <path
       d="m 147.88899,101.27965 c -7.8572,0 -14.22913,-6.36934 -14.22913,-14.229327 0,-7.8573 6.37193,-14.226644 14.22913,-14.226644 7.85721,0 14.22913,6.369344 14.22913,14.226644 0,7.859987 -6.37192,14.229327 -14.22913,14.229327"
       style="fill:#7f6619;fill-opacity:1;fill-rule:nonzero;stroke:none;stroke-width:0.0267618"
       id="path66" />
    <path
       d="m 103.31223,156.72235 c -21.840125,0 -39.542914,-1.54416 -39.542914,-3.4496 0,-1.90546 17.702789,-3.44962 39.542914,-3.44962 21.84013,0 39.54291,1.54416 39.54291,3.44962 0,1.90544 -17.70278,3.4496 -39.54291,3.4496"
       style="fill:#7f6619;fill-opacity:1;fill-rule:nonzero;stroke:none;stroke-width:0.0267618"
       id="path68" />
  </g>
</svg>
