<?xml version="1.0" encoding="UTF-8" standalone="no"?>
<svg
   xmlns:dc="http://purl.org/dc/elements/1.1/"
   xmlns:cc="http://creativecommons.org/ns#"
   xmlns:rdf="http://www.w3.org/1999/02/22-rdf-syntax-ns#"
   xmlns:svg="http://www.w3.org/2000/svg"
   xmlns="http://www.w3.org/2000/svg"
   xmlns:sodipodi="http://sodipodi.sourceforge.net/DTD/sodipodi-0.dtd"
   xmlns:inkscape="http://www.inkscape.org/namespaces/inkscape"
   version="1.0"
   width="512px"
   height="276px"
   viewBox="0 0 512 276"
   preserveAspectRatio="xMidYMid meet"
   id="svg148"
   sodipodi:docname="cse110logo.svg"
   inkscape:version="1.0.2 (e86c870879, 2021-01-15, custom)">
  <metadata
     id="metadata154">
    <rdf:RDF>
      <cc:Work
         rdf:about="">
        <dc:format>image/svg+xml</dc:format>
        <dc:type
           rdf:resource="http://purl.org/dc/dcmitype/StillImage" />
        <dc:title></dc:title>
      </cc:Work>
    </rdf:RDF>
  </metadata>
  <defs
     id="defs152" />
  <sodipodi:namedview
     pagecolor="#ffffff"
     bordercolor="#666666"
     borderopacity="1"
     objecttolerance="10"
     gridtolerance="10"
     guidetolerance="10"
     inkscape:pageopacity="0"
     inkscape:pageshadow="2"
     inkscape:window-width="1920"
     inkscape:window-height="1005"
     id="namedview150"
     showgrid="false"
     inkscape:zoom="2.1520641"
     inkscape:cx="298.32693"
     inkscape:cy="85.002655"
     inkscape:window-x="0"
     inkscape:window-y="34"
     inkscape:window-maximized="1"
     inkscape:current-layer="svg148"
     inkscape:document-rotation="0" />
  <g
     fill="#0047ad"
     id="g146">
    <path
       d="m 147.75,264 c -9.6,-0.8 -21.6,-3.45 -31.15,-6.8 C 72.45,241.55 40.35,203.75 32.05,157.5 29.5,143.4 29.6,126.05 32.3,111.15 35.1,95.6 42.4,77.7 51.5,64 71.25,34.2 101.4,14.25 136.75,7.65 142.9,6.5 145.30916,5.8406166 156.95916,5.4383205 166.95916,5.2883205 171.65,6.2 176,6.75 c 24.4,3.3 45.95,12.65 65.25,28.3 4.15,3.35 15.05,14.35 18.85,18.95 9.65,11.75 19.05,29.95 23.15,45 0.75,2.6 1.45,5.15 1.65,5.65 0.25,0.65 1.65,-1.2 5.6,-7.5 2.85,-4.6 5.75,-9.3 6.45,-10.4 0.7,-1.1 1.55,-2.45 1.85,-3 0.3,-0.55 2.05,-3.35 3.85,-6.25 1.8,-2.9 4.6,-7.45 6.2,-10.1 1.6,-2.7 3.05,-4.9 3.25,-4.9 0.45,0 9.35,5.4 10.25,6.2 0.5,0.45 -0.1,1.7 -2.5,5.55 -1.75,2.75 -6.15,9.85 -9.8,15.75 -3.65,5.9 -7.15,11.55 -7.8,12.5 -0.6,0.95 -3.25,5.25 -5.9,9.5 -2.6,4.25 -6.7,10.9 -9.05,14.7 -2.35,3.85 -4.3,7.15 -4.3,7.4 0,0.8 -1.95,0.35 -3.35,-0.75 -1.8,-1.45 -35.35,-25.8 -42.7,-30.95 -1.8,-1.3 -6.2,-4.5 -9.75,-7.15 -3.55,-2.65 -6.75,-5 -7.15,-5.2 -0.5,-0.3 0.1,-1.5 2.55,-5.1 1.8,-2.55 3.6,-4.9 4.05,-5.15 0.75,-0.5 1.55,0 6.75,4 0.75,0.55 5.5,4 10.6,7.7 5.1,3.65 10.7,7.75 12.5,9.05 1.8,1.3 5.3,3.85 7.75,5.65 2.5,1.75 5.4,3.95 6.55,4.75 3.25,2.45 3.25,2.7 1,-5.55 C 265.7,82.6 253,62.05 235.9,47.35 227.4,40 219.4,34.8 208.95,29.8 198.7,24.9 189.6,22.05 177.4,19.9 c -8.3,-1.45 -26.3,-1.55 -34.65,-0.2 -10.35,1.7 -17.25,3.55 -26.1,7.05 -34.7,13.85 -60.5,42.9 -69.9,78.75 -2.9,11.05 -4,21.3 -3.6,33.5 0.6,17.8 4.45,32.85 12.4,48.5 3.9,7.6 3.6,7.1 7.9,13.5 8.65,12.75 21.95,25.5 34.95,33.4 24.95,15.2 52.8,20.3 83.1,15.15 12.55,-2.1 30.3,-9.4 42,-17.2 18.75,-12.45 33.2,-29.7 42.15,-50.15 1.2,-2.75 2.6,-6.2 3.05,-7.6 0.5,-1.45 1,-2.6 1.15,-2.6 0.3,0 6.8,2.3 8.15,2.85 0.4,0.15 0.85,0.35 1,0.4 0.15,0 0.85,0.2 1.6,0.4 l 1.3,0.35 -1.45,4.1 c -3.2,8.95 -11.45,24.35 -17.05,31.65 -1.05,1.4 -2.85,3.75 -4,5.25 -3.35,4.4 -15.9,16.6 -21.25,20.6 -17.15,13 -33.15,20.2 -53.9,24.35 -11.85,2.4 -24.15,3.05 -36.5,2.05 z"
       id="path132"
       sodipodi:nodetypes="cccccccccccccssscsccscccsccscccccscccccccccccccccccscccccccccc" />
    <path
       d="M78.50 170.55 l0 -10.45 5.80 -4.20 c18.25 -13.20 28.40 -21.80 32.20 -27.40 2.45 -3.60 3.15 -5.95 2.90 -9.55 -0.25 -3.45 -2 -6.10 -5.05 -7.60 -1.85 -0.95 -1.90 -0.95 -4.25 0.25 -3.20 1.55 -4.95 4.55 -6 10.10 -0.75 3.95 -0.90 4.30 -2 4.30 -1.20 0 -23.20 -4 -23.55 -4.30 -0.45 -0.40 1.15 -7.15 2.50 -10.55 2.15 -5.40 5.35 -10.15 8.90 -13.05 3.85 -3.20 10.30 -6.40 14.80 -7.35 4.15 -0.85 15.55 -1 19.35 -0.20 15.40 3.15 24.25 13.55 24.05 28.25 -0.05 5.05 -0.95 8.70 -3.30 13.65 -2.70 5.50 -11.35 13.25 -25.45 22.75 -2.45 1.65 -4.40 3.15 -4.40 3.40 0 0.20 7.50 0.40 16.70 0.40 l16.75 0 -0.25 2.65 c-0.10 1.40 -0.35 6.35 -0.50 11 l-0.30 8.35 -34.45 0 -34.45 0 0 -10.45z"
       id="path134" />
    <path
       d="M159 170.55 l0 -10.40 6.55 -4.70 c9.60 -6.95 10.55 -7.65 18.20 -14 9.10 -7.60 12.80 -11.45 14.75 -15.40 1.50 -2.90 1.60 -3.50 1.40 -6.55 -0.30 -4.25 -1.65 -6.55 -4.60 -8 -2.65 -1.25 -4.10 -0.85 -6.95 1.90 -1.95 1.90 -3.35 5.45 -4.05 10.25 -0.30 2.10 -0.50 2.35 -1.60 2.35 -1.30 0 -23.30 -4 -23.65 -4.30 -0.55 -0.45 2.25 -10.15 3.95 -13.70 2.40 -4.95 5.25 -8.45 9.25 -11.25 7.30 -5.20 12.65 -6.75 23.25 -6.75 8.55 0 13.10 0.95 18.65 3.85 4 2.15 9.05 6.75 11 10.15 5.55 9.65 4.70 23.35 -2.05 32.25 -3.35 4.40 -16.85 15.25 -25.95 20.85 -0.90 0.55 -1.65 1.20 -1.65 1.45 0 0.25 7.15 0.45 16.80 0.45 l16.80 0 -0.30 3.90 c-0.15 2.10 -0.40 7.05 -0.60 11 l-0.30 7.10 -34.45 0 -34.45 0 0 -10.45z"
       id="path136" />
    <path
       d="M313.25 163.95 c-2.15 -0.60 -5.10 -3.20 -6.40 -5.60 -0.90 -1.75 -1.10 -2.90 -1.10 -7.20 0 -4.85 0.05 -5.15 1.50 -7.20 3.05 -4.30 8.10 -6.25 17.65 -6.80 l5.70 -0.30 -0.30 -1.55 c-0.15 -0.85 -0.90 -2.10 -1.65 -2.75 -1.20 -1.05 -1.70 -1.15 -4.65 -0.90 -1.80 0.15 -4.80 0.90 -6.65 1.60 -1.90 0.75 -3.50 1.30 -3.60 1.20 -0.10 -0.10 -1.10 -2.30 -2.25 -4.90 -2.35 -5.35 -2.45 -5 2.50 -6.60 6.95 -2.15 17 -2.50 22.05 -0.70 4.10 1.45 7.35 4.85 8.50 8.90 0.25 0.85 0.45 8.50 0.45 17.05 l0.05 15.55 -5 0.15 -5 0.15 -1.30 -2.55 c-0.70 -1.35 -1.40 -2.50 -1.55 -2.50 -0.15 0 -1.30 0.90 -2.55 2 -1.35 1.15 -3.35 2.30 -4.80 2.75 -2.75 0.80 -9.20 0.95 -11.60 0.20z m14.25 -10.70 c1.95 -1 3 -3.15 3 -6 l0 -2.35 -2.60 0.35 c-5.60 0.70 -7.40 1.95 -7.40 5.10 0 3.25 3.55 4.70 7 2.90z"
       id="path138" />
    <path
       d="M364.25 163.70 c-2.40 -0.90 -4.50 -2.80 -5.90 -5.45 -1 -1.85 -1.10 -3 -1.35 -13.75 l-0.25 -11.75 -2.35 0.10 -2.40 0.10 0 -3.35 0.05 -3.35 3.05 -2 c2.10 -1.35 3.25 -2.50 3.75 -3.75 0.40 -0.95 1.30 -3 1.95 -4.50 l1.20 -2.75 4.65 0.10 4.60 0.10 0.15 4 0.15 4.05 5.25 0 5.25 0 -0.15 5.65 -0.15 5.60 -3.75 0.05 c-2.05 0.05 -4.35 0.10 -5.10 0.15 l-1.40 0.05 0 8 c0 9.15 0.50 11.25 2.80 11.80 1.30 0.35 5.25 -0.25 7.35 -1.05 0.80 -0.35 0.85 0.05 0.75 5.30 l-0.15 5.70 -3 0.85 c-3.85 1.05 -12.20 1.10 -15 0.10z"
       id="path140" />
    <path
       d="M401 163.60 c-4 -1.35 -5.60 -2.30 -7.65 -4.55 -3.90 -4.35 -5.60 -10.05 -5.20 -17.55 0.15 -2.60 0.55 -5.55 0.85 -6.50 3.30 -10 11.25 -14.70 23.45 -13.85 3.80 0.25 10.10 1.85 11.20 2.85 0.30 0.25 -3.25 10.25 -3.90 10.90 -0.05 0.05 -1.80 -0.45 -3.90 -1.15 -2.10 -0.70 -4.55 -1.25 -5.50 -1.25 -2.35 0 -4.85 1.80 -6.25 4.50 -1 1.95 -1.15 2.80 -1 6.50 0.15 2.70 0.55 4.85 1.05 5.85 1.05 2 4.15 3.65 6.70 3.65 1.60 0 7.60 -1.80 10.80 -3.20 0.80 -0.40 0.85 0.05 0.85 5.40 0 6.45 0.30 6 -4.50 7.95 -3.40 1.45 -13.30 1.70 -17 0.45z"
       id="path142" />
    <path
       d="M430.60 135.15 l0.15 -28.90 7.40 -0.15 7.35 -0.15 -0.05 4.90 c-0.05 2.70 -0.20 7.25 -0.40 10.15 -0.20 2.90 -0.30 5.35 -0.20 5.45 0.05 0.10 1 -0.75 2.10 -1.85 2.60 -2.70 6.30 -3.80 11.25 -3.50 6.40 0.45 10.75 3.50 12.60 8.95 0.85 2.40 0.95 4.40 0.95 18.20 l0 15.50 -7.35 0.15 -7.40 0.15 0 -12.65 c0 -13.45 -0.30 -15.75 -2.25 -17.70 -2.30 -2.30 -6.25 -1 -8.05 2.60 -0.85 1.70 -1 3.45 -1.20 14.70 l-0.25 12.75 -7.40 0.15 -7.35 0.15 0.10 -28.90z"
       id="path144" />
  </g>
</svg>
