<?xml version="1.0" encoding="UTF-8" standalone="no"?>
<svg
   version="1.0"
   width="300.30896"
   height="267.02991"
   viewBox="0 0 300.30896 267.02991"
   preserveAspectRatio="xMidYMid meet"
   id="svg148"
   sodipodi:docname="favicon.svg"
   inkscape:version="1.1 (c4e8f9ed74, 2021-05-24)"
   xmlns:inkscape="http://www.inkscape.org/namespaces/inkscape"
   xmlns:sodipodi="http://sodipodi.sourceforge.net/DTD/sodipodi-0.dtd"
   xmlns="http://www.w3.org/2000/svg"
   xmlns:svg="http://www.w3.org/2000/svg"
   xmlns:rdf="http://www.w3.org/1999/02/22-rdf-syntax-ns#"
   xmlns:cc="http://creativecommons.org/ns#"
   xmlns:dc="http://purl.org/dc/elements/1.1/">
  <metadata
     id="metadata154">
    <rdf:RDF>
      <cc:Work
         rdf:about="">
        <dc:format>image/svg+xml</dc:format>
        <dc:type
           rdf:resource="http://purl.org/dc/dcmitype/StillImage" />
      </cc:Work>
    </rdf:RDF>
  </metadata>
  <defs
     id="defs152" />
  <sodipodi:namedview
     pagecolor="#ffffff"
     bordercolor="#666666"
     borderopacity="1"
     objecttolerance="10"
     gridtolerance="10"
     guidetolerance="10"
     inkscape:pageopacity="0"
     inkscape:pageshadow="2"
     inkscape:window-width="1920"
     inkscape:window-height="1005"
     id="namedview150"
     showgrid="false"
     inkscape:zoom="2.1520641"
     inkscape:cx="-34.617928"
     inkscape:cy="99.439417"
     inkscape:window-x="0"
     inkscape:window-y="34"
     inkscape:window-maximized="1"
     inkscape:current-layer="g146"
     inkscape:document-rotation="0"
     inkscape:pagecheckerboard="0"
     lock-margins="true"
     fit-margin-left="4"
     fit-margin-top="4"
     fit-margin-right="4"
     fit-margin-bottom="4" />
  <g
     fill="#0047ad"
     id="g146"
     transform="translate(-26.204063,-1.4218846)">
    <path
       d="m 147.75,264 c -9.6,-0.8 -21.6,-3.45 -31.15,-6.8 C 72.45,241.55 40.35,203.75 32.05,157.5 29.5,143.4 29.6,126.05 32.3,111.15 35.1,95.6 42.4,77.7 51.5,64 71.25,34.2 101.4,14.25 136.75,7.65 142.9,6.5 145.30916,5.8406166 156.95916,5.4383205 166.95916,5.2883205 171.65,6.2 176,6.75 c 24.4,3.3 45.95,12.65 65.25,28.3 4.15,3.35 15.05,14.35 18.85,18.95 9.65,11.75 19.05,29.95 23.15,45 0.75,2.6 1.45,5.15 1.65,5.65 0.25,0.65 1.65,-1.2 5.6,-7.5 2.85,-4.6 5.75,-9.3 6.45,-10.4 0.7,-1.1 1.55,-2.45 1.85,-3 0.3,-0.55 2.05,-3.35 3.85,-6.25 1.8,-2.9 4.6,-7.45 6.2,-10.1 1.6,-2.7 3.05,-4.9 3.25,-4.9 0.45,0 9.35,5.4 10.25,6.2 0.5,0.45 -0.1,1.7 -2.5,5.55 -1.75,2.75 -6.15,9.85 -9.8,15.75 -3.65,5.9 -7.15,11.55 -7.8,12.5 -0.6,0.95 -3.25,5.25 -5.9,9.5 -2.6,4.25 -6.7,10.9 -9.05,14.7 -2.35,3.85 -4.3,7.15 -4.3,7.4 0,0.8 -1.95,0.35 -3.35,-0.75 -1.8,-1.45 -35.35,-25.8 -42.7,-30.95 -1.8,-1.3 -6.2,-4.5 -9.75,-7.15 -3.55,-2.65 -6.75,-5 -7.15,-5.2 -0.5,-0.3 0.1,-1.5 2.55,-5.1 1.8,-2.55 3.6,-4.9 4.05,-5.15 0.75,-0.5 1.55,0 6.75,4 0.75,0.55 5.5,4 10.6,7.7 5.1,3.65 10.7,7.75 12.5,9.05 1.8,1.3 5.3,3.85 7.75,5.65 2.5,1.75 5.4,3.95 6.55,4.75 3.25,2.45 3.25,2.7 1,-5.55 C 265.7,82.6 253,62.05 235.9,47.35 227.4,40 219.4,34.8 208.95,29.8 198.7,24.9 189.6,22.05 177.4,19.9 c -8.3,-1.45 -26.3,-1.55 -34.65,-0.2 -10.35,1.7 -17.25,3.55 -26.1,7.05 -34.7,13.85 -60.5,42.9 -69.9,78.75 -2.9,11.05 -4,21.3 -3.6,33.5 0.6,17.8 4.45,32.85 12.4,48.5 3.9,7.6 3.6,7.1 7.9,13.5 8.65,12.75 21.95,25.5 34.95,33.4 24.95,15.2 52.8,20.3 83.1,15.15 12.55,-2.1 30.3,-9.4 42,-17.2 18.75,-12.45 33.2,-29.7 42.15,-50.15 1.2,-2.75 2.6,-6.2 3.05,-7.6 0.5,-1.45 1,-2.6 1.15,-2.6 0.3,0 6.8,2.3 8.15,2.85 0.4,0.15 0.85,0.35 1,0.4 0.15,0 0.85,0.2 1.6,0.4 l 1.3,0.35 -1.45,4.1 c -3.2,8.95 -11.45,24.35 -17.05,31.65 -1.05,1.4 -2.85,3.75 -4,5.25 -3.35,4.4 -15.9,16.6 -21.25,20.6 -17.15,13 -33.15,20.2 -53.9,24.35 -11.85,2.4 -24.15,3.05 -36.5,2.05 z"
       id="path132"
       sodipodi:nodetypes="cccccccccccccssscsccscccsccscccccscccccccccccccccccscccccccccc" />
    <path
       d="M 78.5,170.55 V 160.1 l 5.8,-4.2 c 18.25,-13.2 28.4,-21.8 32.2,-27.4 2.45,-3.6 3.15,-5.95 2.9,-9.55 -0.25,-3.45 -2,-6.1 -5.05,-7.6 -1.85,-0.95 -1.9,-0.95 -4.25,0.25 -3.2,1.55 -4.95,4.55 -6,10.1 -0.75,3.95 -0.9,4.3 -2,4.3 -1.2,0 -23.2,-4 -23.55,-4.3 -0.45,-0.4 1.15,-7.15 2.5,-10.55 2.15,-5.4 5.35,-10.15 8.9,-13.05 3.85,-3.2 10.3,-6.4 14.8,-7.35 4.15,-0.85 15.55,-1 19.35,-0.2 15.4,3.15 24.25,13.55 24.05,28.25 -0.05,5.05 -0.95,8.7 -3.3,13.65 -2.7,5.5 -11.35,13.25 -25.45,22.75 -2.45,1.65 -4.4,3.15 -4.4,3.4 0,0.2 7.5,0.4 16.7,0.4 h 16.75 l -0.25,2.65 c -0.1,1.4 -0.35,6.35 -0.5,11 L 147.4,181 H 112.95 78.5 Z"
       id="path134" />
    <path
       d="m 159,170.55 v -10.4 l 6.55,-4.7 c 9.6,-6.95 10.55,-7.65 18.2,-14 9.1,-7.6 12.8,-11.45 14.75,-15.4 1.5,-2.9 1.6,-3.5 1.4,-6.55 -0.3,-4.25 -1.65,-6.55 -4.6,-8 -2.65,-1.25 -4.1,-0.85 -6.95,1.9 -1.95,1.9 -3.35,5.45 -4.05,10.25 -0.3,2.1 -0.5,2.35 -1.6,2.35 -1.3,0 -23.3,-4 -23.65,-4.3 -0.55,-0.45 2.25,-10.15 3.95,-13.7 2.4,-4.95 5.25,-8.45 9.25,-11.25 7.3,-5.2 12.65,-6.75 23.25,-6.75 8.55,0 13.1,0.95 18.65,3.85 4,2.15 9.05,6.75 11,10.15 5.55,9.65 4.7,23.35 -2.05,32.25 -3.35,4.4 -16.85,15.25 -25.95,20.85 -0.9,0.55 -1.65,1.2 -1.65,1.45 0,0.25 7.15,0.45 16.8,0.45 h 16.8 l -0.3,3.9 c -0.15,2.1 -0.4,7.05 -0.6,11 l -0.3,7.1 H 193.45 159 Z"
       id="path136" />
  </g>
</svg>
