<?xml version="1.0" encoding="utf-8"?>
<!DOCTYPE svg PUBLIC "-//W3C//DTD SVG 20010904//EN" "http://www.w3.org/TR/2001/REC-SVG-20010904/DTD/svg10.dtd">
<svg version="1.0" xmlns="http://www.w3.org/2000/svg" width="512px" height="276px" viewBox="0 0 512 276" preserveAspectRatio="xMidYMid meet">
 <g fill="#ffffff">
  <path d="M0 138 l0 -138 256 0 256 0 0 138 0 138 -256 0 -256 0 0 -138z m169.25 124.45 c3.30 -0.25 9.40 -1.15 13.50 -2 20.75 -4.15 36.75 -11.35 53.90 -24.35 5.35 -4 17.90 -16.20 21.25 -20.60 1.15 -1.50 2.95 -3.85 4 -5.25 5.05 -6.65 12.25 -19.55 15.90 -28.65 0.95 -2.30 1.70 -4.30 1.70 -4.40 0 -0.10 -0.50 -0.20 -1.15 -0.20 -0.65 0 -1.35 -0.20 -1.65 -0.45 -0.45 -0.40 -5 -2.05 -5.75 -2.05 -0.20 0 -0.50 0.60 -0.70 1.35 -1.20 4.80 -7.55 17.65 -12.15 24.65 -11.70 17.70 -25.60 30.15 -44.35 39.80 -17.15 8.80 -33.40 12.65 -53.80 12.70 -17.65 0 -30.40 -2.30 -44.95 -8.10 -14.85 -5.90 -26.35 -13.40 -37.90 -24.65 -7.55 -7.25 -13.20 -14.30 -18.95 -23.50 -1.95 -3.10 -7.80 -15.20 -9.35 -19.45 -2.15 -5.70 -4.90 -16.10 -6.05 -22.85 -1.10 -6.40 -1.55 -24.65 -0.80 -31.95 0.60 -5.75 2 -13.40 3.30 -18.50 10.95 -41.75 44.25 -74.10 86.50 -83.95 9.65 -2.30 14.50 -2.75 28 -2.75 13.70 0.05 19.10 0.60 29.40 3.25 9.80 2.45 22.60 7.75 31.05 12.75 26.30 15.75 44.90 40.40 53.15 70.60 0.70 2.65 1.40 6.05 1.55 7.50 l0.20 2.60 -1.90 0 c-1.30 0 -2.45 -0.45 -3.90 -1.55 -1.15 -0.80 -4.05 -3 -6.55 -4.75 -2.45 -1.80 -5.95 -4.35 -7.75 -5.65 -1.80 -1.30 -7.05 -5.15 -11.75 -8.55 -4.65 -3.35 -9.45 -6.85 -10.65 -7.70 -1.20 -0.85 -2.80 -2.05 -3.60 -2.70 -0.75 -0.60 -1.50 -1.10 -1.65 -1.10 -0.30 0 -5 7.05 -4.80 7.20 1.05 0.85 16.15 11.90 17.45 12.80 2 1.35 10.35 7.40 28.65 20.70 7.10 5.15 13 9.30 13.05 9.20 0.05 -0.05 1.70 -2.75 3.65 -5.90 9.05 -14.75 14.40 -23.40 15.40 -25 0.65 -0.95 3.80 -6 7 -11.25 3.25 -5.20 7.35 -11.80 9.10 -14.65 1.80 -2.85 3.10 -5.30 2.95 -5.50 -0.20 -0.15 -1.85 -1.25 -3.70 -2.45 l-3.35 -2.10 -1.50 2.45 c-2.35 3.80 -3.90 6.35 -7.25 11.75 -1.75 2.75 -3.40 5.45 -3.70 6 -0.30 0.55 -1.15 1.90 -1.85 3 -0.70 1.10 -3.60 5.75 -6.45 10.40 -5 8 -5.30 8.35 -6.85 8.35 -1.50 0 -1.65 -0.15 -2.15 -2.10 -3.55 -13.95 -9.95 -28.50 -17.60 -39.90 -5.30 -7.95 -8 -11.25 -15.80 -19.15 -15.90 -16.15 -32.60 -26.30 -54.10 -33 -21.65 -6.80 -48.05 -7.10 -69.25 -0.90 -26.85 7.85 -49 22.45 -66.25 43.80 -12.65 15.65 -22.65 37.40 -26.20 56.90 -2.65 14.65 -2.75 29.60 -0.25 43.35 5.20 28.80 20.50 56.15 41.70 74.45 13.90 12 26.65 19.50 42.85 25.25 16.60 5.85 34.40 8.20 51.15 6.75z m-23.10 -89.05 c0.20 -3.30 0.35 -7.60 0.35 -9.50 l0 -3.40 -16.50 0 -16.50 0 0 -1.90 c0 -1.90 0.15 -2.05 4.40 -4.90 14.10 -9.50 22.75 -17.25 25.45 -22.75 3.95 -8.20 4.30 -14.90 1.10 -22.55 -3.45 -8.40 -11.20 -14.15 -21.85 -16.35 -3.75 -0.75 -12.20 -0.65 -16.35 0.20 -7.70 1.60 -16.10 7.15 -20 13.25 -3.30 5.05 -6.90 15 -5.45 15 0.55 0 19.25 3.50 20.20 3.75 0.65 0.20 0.95 -0.65 1.60 -4.05 1.05 -5.45 2.80 -8.55 5.90 -10.05 4 -2.05 7.75 -1.15 10.70 2.50 1.40 1.75 1.55 2.35 1.75 6.25 0.10 2.45 -0.10 5.10 -0.45 6.30 -2 6.60 -11.55 15.45 -34.70 32.20 l-5.80 4.20 0 8.95 0 8.95 32.90 0 32.95 0 0.30 -6.10z m80.55 -1.25 c0.20 -4.10 0.40 -8.35 0.50 -9.50 l0.20 -2.15 -16.70 0 -16.70 0 0 -1.95 c0 -1.65 0.25 -2.10 1.65 -2.95 9.10 -5.60 22.60 -16.45 25.95 -20.85 2.35 -3.10 4.70 -8.75 5.35 -12.80 0.90 -5.40 -0.80 -12.95 -4 -17.55 -2.05 -3.05 -6.85 -7.20 -10.35 -9.05 -9.45 -5 -23.90 -5.20 -33.20 -0.55 -6.90 3.45 -11.45 7.85 -14.60 14.05 -1.60 3.25 -4.15 11 -3.70 11.40 0.10 0.10 4.55 1 9.90 2 5.35 1 10.15 1.90 10.60 2.05 0.65 0.20 0.90 -0.20 1.20 -2.15 0.70 -4.80 2.10 -8.35 4.05 -10.25 3.20 -3.10 6.25 -3.65 9.95 -1.85 3.35 1.60 4.40 3.70 4.60 9.50 0.20 4.65 0.15 5 -1.40 8.05 -1.95 3.90 -5.65 7.75 -14.75 15.35 -7.65 6.35 -8.60 7.05 -18.20 14 l-6.55 4.70 0 8.90 0 8.95 32.95 0 32.95 0 0.30 -7.35z m96.65 -9.90 c1.45 -0.45 3.45 -1.60 4.80 -2.75 1.75 -1.55 2.65 -2 4.05 -2 1.65 0 1.90 0.20 3.05 2.50 l1.25 2.50 3.55 0 3.50 0 -0.15 -15.10 c-0.15 -14.55 -0.20 -15.25 -1.25 -17.20 -1.50 -2.75 -4.70 -5.45 -7.85 -6.55 -3.70 -1.30 -11.75 -1.15 -17.05 0.30 -2.20 0.60 -4.30 1.25 -4.65 1.50 -0.45 0.25 -0.25 1.15 0.75 3.50 1.20 2.65 1.55 3.05 2.40 2.80 4.05 -1.30 6.45 -1.75 9.60 -1.75 3.05 0 3.80 0.20 4.95 1.15 1.15 1 1.40 1.70 1.60 4.20 l0.20 3 -5.65 0.30 c-9.60 0.55 -14.65 2.50 -17.70 6.80 -1.35 1.90 -1.50 2.55 -1.50 5.70 0.05 4.25 1.20 6.90 4.10 9.30 3.10 2.60 7.25 3.20 12 1.80z m54.40 -0.15 l3 -0.85 0.15 -3.55 0.15 -3.55 -3.50 0.25 c-7.25 0.50 -7.55 0 -7.55 -13.35 l0 -9.50 2.65 -0.30 c1.40 -0.20 3.15 -0.30 3.85 -0.20 0.70 0.05 1.85 0.05 2.65 0.05 l1.35 -0.10 0 -4 0 -4 -5.25 0 -5.25 0 0 -4 0 -4.05 -3.35 0.15 -3.40 0.15 -1.80 4.25 c-1.70 3.95 -2 4.35 -4.85 6.25 -2.65 1.75 -3.05 2.20 -3.05 3.60 -0.05 1.55 0 1.60 2.35 1.75 l2.35 0.15 0.25 11.75 c0.25 10.75 0.35 11.90 1.35 13.75 1.40 2.65 3.50 4.55 5.90 5.45 2.65 0.95 8.30 0.90 12 -0.10z m38.75 -0.45 c4.55 -1.85 4.50 -1.80 4.50 -5.65 0 -1.95 -0.15 -3.50 -0.35 -3.50 -0.25 0 -1.85 0.45 -3.55 1 -4.20 1.30 -9 1.30 -11.60 0 -3 -1.55 -3.70 -3.30 -3.90 -10 -0.15 -5.20 -0.05 -5.95 1 -8 1.65 -3.25 3.80 -4.50 7.65 -4.50 1.70 0 4.25 0.35 5.70 0.80 1.45 0.40 2.70 0.70 2.75 0.60 0.20 -0.25 2.80 -6.90 2.80 -7.10 0 -0.45 -6.45 -2.30 -9.05 -2.60 -6.05 -0.70 -13.10 1.60 -17.10 5.50 -7.40 7.25 -7.65 21.45 -0.50 29.35 2.05 2.25 3.65 3.20 7.65 4.55 3.50 1.15 10.65 0.95 14 -0.45z m27.50 -12.15 c0.20 -11.25 0.35 -13 1.20 -14.70 1.35 -2.65 3.40 -3.80 6.95 -3.80 2.40 0 3.10 0.20 4.10 1.20 1.95 1.95 2.25 4.25 2.25 17.70 l0 12.65 5.90 -0.15 5.85 -0.15 0 -14 c0 -15.80 -0.35 -17.70 -3.65 -21.35 -4.75 -5.25 -13.40 -5.70 -18.05 -0.90 -1.60 1.65 -2.30 2 -3.80 2 l-1.90 0 0.35 -3.35 c0.15 -1.90 0.45 -6.50 0.60 -10.30 l0.35 -6.90 -5.95 0.15 -5.95 0.15 -0.15 27.40 -0.10 27.40 5.85 -0.15 5.90 -0.15 0.25 -12.75z"/>
  <path d="M320 154.50 c-0.80 -0.80 -1 -1.65 -1 -4.05 0 -1.65 0.25 -3.45 0.55 -4.05 0.80 -1.50 3.40 -2.35 8.15 -2.70 l4.30 -0.35 0 3.85 c0 6.40 -1.75 8.30 -7.75 8.30 -2.60 0 -3.45 -0.20 -4.25 -1z"/>
 </g>
 <g fill="#0047ad">
  <path d="M147.75 264 c-9.60 -0.80 -21.60 -3.45 -31.15 -6.80 -44.15 -15.65 -76.25 -53.45 -84.55 -99.70 -2.55 -14.10 -2.45 -31.45 0.25 -46.35 2.80 -15.55 10.10 -33.45 19.20 -47.15 19.75 -29.80 49.90 -49.75 85.25 -56.35 6.15 -1.15 8.60 -1.30 20.25 -1.45 10 -0.15 14.65 0 19 0.55 24.40 3.30 45.95 12.65 65.25 28.30 4.15 3.35 15.05 14.35 18.85 18.95 9.65 11.75 19.05 29.95 23.15 45 0.75 2.60 1.45 5.15 1.65 5.65 0.25 0.65 1.65 -1.20 5.60 -7.50 2.85 -4.60 5.75 -9.30 6.45 -10.40 0.70 -1.10 1.55 -2.45 1.85 -3 0.30 -0.55 2.05 -3.35 3.85 -6.25 1.80 -2.90 4.60 -7.45 6.20 -10.10 1.60 -2.70 3.05 -4.90 3.25 -4.90 0.45 0 9.35 5.40 10.25 6.20 0.50 0.45 -0.10 1.70 -2.50 5.55 -1.75 2.75 -6.15 9.85 -9.80 15.75 -3.65 5.90 -7.15 11.55 -7.80 12.50 -0.60 0.95 -3.25 5.25 -5.90 9.50 -2.60 4.25 -6.70 10.90 -9.05 14.70 -2.35 3.85 -4.30 7.15 -4.30 7.40 0 0.80 -1.95 0.35 -3.35 -0.75 -1.80 -1.45 -35.35 -25.80 -42.70 -30.95 -1.80 -1.30 -6.20 -4.50 -9.75 -7.15 -3.55 -2.65 -6.75 -5 -7.15 -5.20 -0.50 -0.30 0.10 -1.50 2.55 -5.10 1.80 -2.55 3.60 -4.90 4.05 -5.15 0.75 -0.50 1.55 0 6.75 4 0.75 0.55 5.50 4 10.60 7.70 5.10 3.65 10.70 7.75 12.50 9.05 1.80 1.30 5.30 3.85 7.75 5.65 2.50 1.75 5.40 3.95 6.55 4.75 3.25 2.45 3.25 2.70 1 -5.55 -6.10 -22.80 -18.80 -43.35 -35.90 -58.05 -8.50 -7.35 -16.50 -12.55 -26.95 -17.55 -10.25 -4.90 -19.35 -7.75 -31.55 -9.90 -8.30 -1.45 -26.30 -1.55 -34.65 -0.20 -10.35 1.70 -17.25 3.55 -26.10 7.05 -34.70 13.85 -60.50 42.90 -69.90 78.75 -2.90 11.05 -4 21.30 -3.60 33.50 0.60 17.80 4.45 32.85 12.40 48.50 3.90 7.60 3.60 7.10 7.90 13.50 8.65 12.75 21.95 25.50 34.95 33.40 24.95 15.20 52.80 20.30 83.10 15.15 12.55 -2.10 30.30 -9.40 42 -17.20 18.75 -12.45 33.20 -29.70 42.15 -50.15 1.20 -2.75 2.60 -6.20 3.05 -7.60 0.50 -1.45 1 -2.60 1.15 -2.60 0.30 0 6.80 2.30 8.15 2.85 0.40 0.15 0.85 0.35 1 0.40 0.15 0 0.85 0.20 1.60 0.40 l1.30 0.35 -1.45 4.10 c-3.20 8.95 -11.45 24.35 -17.05 31.65 -1.05 1.40 -2.85 3.75 -4 5.25 -3.35 4.40 -15.90 16.60 -21.25 20.60 -17.15 13 -33.15 20.20 -53.90 24.35 -11.85 2.40 -24.15 3.05 -36.50 2.05z"/>
  <path d="M78.50 170.55 l0 -10.45 5.80 -4.20 c18.25 -13.20 28.40 -21.80 32.20 -27.40 2.45 -3.60 3.15 -5.95 2.90 -9.55 -0.25 -3.45 -2 -6.10 -5.05 -7.60 -1.85 -0.95 -1.90 -0.95 -4.25 0.25 -3.20 1.55 -4.95 4.55 -6 10.10 -0.75 3.95 -0.90 4.30 -2 4.30 -1.20 0 -23.20 -4 -23.55 -4.30 -0.45 -0.40 1.15 -7.15 2.50 -10.55 2.15 -5.40 5.35 -10.15 8.90 -13.05 3.85 -3.20 10.30 -6.40 14.80 -7.35 4.15 -0.85 15.55 -1 19.35 -0.20 15.40 3.15 24.25 13.55 24.05 28.25 -0.05 5.05 -0.95 8.70 -3.30 13.65 -2.70 5.50 -11.35 13.25 -25.45 22.75 -2.45 1.65 -4.40 3.15 -4.40 3.40 0 0.20 7.50 0.40 16.70 0.40 l16.75 0 -0.25 2.65 c-0.10 1.40 -0.35 6.35 -0.50 11 l-0.30 8.35 -34.45 0 -34.45 0 0 -10.45z"/>
  <path d="M159 170.55 l0 -10.40 6.55 -4.70 c9.60 -6.95 10.55 -7.65 18.20 -14 9.10 -7.60 12.80 -11.45 14.75 -15.40 1.50 -2.90 1.60 -3.50 1.40 -6.55 -0.30 -4.25 -1.65 -6.55 -4.60 -8 -2.65 -1.25 -4.10 -0.85 -6.95 1.90 -1.95 1.90 -3.35 5.45 -4.05 10.25 -0.30 2.10 -0.50 2.35 -1.60 2.35 -1.30 0 -23.30 -4 -23.65 -4.30 -0.55 -0.45 2.25 -10.15 3.95 -13.70 2.40 -4.95 5.25 -8.45 9.25 -11.25 7.30 -5.20 12.65 -6.75 23.25 -6.75 8.55 0 13.10 0.95 18.65 3.85 4 2.15 9.05 6.75 11 10.15 5.55 9.65 4.70 23.35 -2.05 32.25 -3.35 4.40 -16.85 15.25 -25.95 20.85 -0.90 0.55 -1.65 1.20 -1.65 1.45 0 0.25 7.15 0.45 16.80 0.45 l16.80 0 -0.30 3.90 c-0.15 2.10 -0.40 7.05 -0.60 11 l-0.30 7.10 -34.45 0 -34.45 0 0 -10.45z"/>
  <path d="M313.25 163.95 c-2.15 -0.60 -5.10 -3.20 -6.40 -5.60 -0.90 -1.75 -1.10 -2.90 -1.10 -7.20 0 -4.85 0.05 -5.15 1.50 -7.20 3.05 -4.30 8.10 -6.25 17.65 -6.80 l5.70 -0.30 -0.30 -1.55 c-0.15 -0.85 -0.90 -2.10 -1.65 -2.75 -1.20 -1.05 -1.70 -1.15 -4.65 -0.90 -1.80 0.15 -4.80 0.90 -6.65 1.60 -1.90 0.75 -3.50 1.30 -3.60 1.20 -0.10 -0.10 -1.10 -2.30 -2.25 -4.90 -2.35 -5.35 -2.45 -5 2.50 -6.60 6.95 -2.15 17 -2.50 22.05 -0.70 4.10 1.45 7.35 4.85 8.50 8.90 0.25 0.85 0.45 8.50 0.45 17.05 l0.05 15.55 -5 0.15 -5 0.15 -1.30 -2.55 c-0.70 -1.35 -1.40 -2.50 -1.55 -2.50 -0.15 0 -1.30 0.90 -2.55 2 -1.35 1.15 -3.35 2.30 -4.80 2.75 -2.75 0.80 -9.20 0.95 -11.60 0.20z m14.25 -10.70 c1.95 -1 3 -3.15 3 -6 l0 -2.35 -2.60 0.35 c-5.60 0.70 -7.40 1.95 -7.40 5.10 0 3.25 3.55 4.70 7 2.90z"/>
  <path d="M364.25 163.70 c-2.40 -0.90 -4.50 -2.80 -5.90 -5.45 -1 -1.85 -1.10 -3 -1.35 -13.75 l-0.25 -11.75 -2.35 0.10 -2.40 0.10 0 -3.35 0.05 -3.35 3.05 -2 c2.10 -1.35 3.25 -2.50 3.75 -3.75 0.40 -0.95 1.30 -3 1.95 -4.50 l1.20 -2.75 4.65 0.10 4.60 0.10 0.15 4 0.15 4.05 5.25 0 5.25 0 -0.15 5.65 -0.15 5.60 -3.75 0.05 c-2.05 0.05 -4.35 0.10 -5.10 0.15 l-1.40 0.05 0 8 c0 9.15 0.50 11.25 2.80 11.80 1.30 0.35 5.25 -0.25 7.35 -1.05 0.80 -0.35 0.85 0.05 0.75 5.30 l-0.15 5.70 -3 0.85 c-3.85 1.05 -12.20 1.10 -15 0.10z"/>
  <path d="M401 163.60 c-4 -1.35 -5.60 -2.30 -7.65 -4.55 -3.90 -4.35 -5.60 -10.05 -5.20 -17.55 0.15 -2.60 0.55 -5.55 0.85 -6.50 3.30 -10 11.25 -14.70 23.45 -13.85 3.80 0.25 10.10 1.85 11.20 2.85 0.30 0.25 -3.25 10.25 -3.90 10.90 -0.05 0.05 -1.80 -0.45 -3.90 -1.15 -2.10 -0.70 -4.55 -1.25 -5.50 -1.25 -2.35 0 -4.85 1.80 -6.25 4.50 -1 1.95 -1.15 2.80 -1 6.50 0.15 2.70 0.55 4.85 1.05 5.85 1.05 2 4.15 3.65 6.70 3.65 1.60 0 7.60 -1.80 10.80 -3.20 0.80 -0.40 0.85 0.05 0.85 5.40 0 6.45 0.30 6 -4.50 7.95 -3.40 1.45 -13.30 1.70 -17 0.45z"/>
  <path d="M430.60 135.15 l0.15 -28.90 7.40 -0.15 7.35 -0.15 -0.05 4.90 c-0.05 2.70 -0.20 7.25 -0.40 10.15 -0.20 2.90 -0.30 5.35 -0.20 5.45 0.05 0.10 1 -0.75 2.10 -1.85 2.60 -2.70 6.30 -3.80 11.25 -3.50 6.40 0.45 10.75 3.50 12.60 8.95 0.85 2.40 0.95 4.40 0.95 18.20 l0 15.50 -7.35 0.15 -7.40 0.15 0 -12.65 c0 -13.45 -0.30 -15.75 -2.25 -17.70 -2.30 -2.30 -6.25 -1 -8.05 2.60 -0.85 1.70 -1 3.45 -1.20 14.70 l-0.25 12.75 -7.40 0.15 -7.35 0.15 0.10 -28.90z"/>
 </g>
</svg>